<?xml version="1.0" encoding="utf-8"?>
<!-- Generator: Adobe Illustrator 16.0.0, SVG Export Plug-In . SVG Version: 6.00 Build 0)  -->
<!DOCTYPE svg PUBLIC "-//W3C//DTD SVG 1.1//EN" "http://www.w3.org/Graphics/SVG/1.1/DTD/svg11.dtd">
<svg version="1.1" id="Layer_1" xmlns="http://www.w3.org/2000/svg" xmlns:xlink="http://www.w3.org/1999/xlink" x="0px" y="0px"
	 width="100px" height="100px" viewBox="0 0 100 100" enable-background="new 0 0 100 100" xml:space="preserve">
<path d="M91.051,43.385L54.548,6.882C53.333,5.668,51.719,5,50,5c-1.718,0-3.332,0.669-4.547,1.883L8.95,43.385
	c-1.215,1.216-1.884,2.83-1.884,4.548c0,1.717,0.669,3.333,1.884,4.547l0.376,0.379h8.431v35.709c0,3.547,2.885,6.432,6.431,6.432
	H43.22V70.084c0-2.129,1.731-3.859,3.858-3.859h5.843c2.129,0,3.858,1.73,3.858,3.859V95h19.031c3.547,0,6.432-2.883,6.432-6.43
	V52.859h8.432l0.377-0.379c1.215-1.215,1.883-2.831,1.883-4.547C92.934,46.215,92.266,44.601,91.051,43.385z"
	fill="#e2e2e2"/>
</svg>
