<svg width="10" height="10" viewBox="0 0 10 10" fill="none" xmlns="http://www.w3.org/2000/svg">
<path d="M9.9501 3.34499L9.4251 1.65999C9.3151 1.20999 8.9251 0.899994 8.4701 0.899994H1.5251C1.0751 0.899994 0.680099 1.21499 0.575099 1.65999L0.0500986 3.34499C-0.179901 4.32999 0.475099 4.89999 0.500099 4.92999V8.89999C0.500099 9.44999 0.950099 9.89999 1.5001 9.89999H8.5001C9.0501 9.89999 9.5001 9.44999 9.5001 8.89999V4.92999C10.0601 4.36999 10.0451 3.72499 9.9501 3.34499ZM5.5001 1.89999H6.4801L6.7501 3.65999C6.7951 4.01499 6.5551 4.39999 6.1101 4.39999C5.7751 4.39999 5.5001 4.10499 5.5001 3.74499V1.89999ZM2.2201 3.82999C2.1801 4.15499 1.9201 4.39999 1.6151 4.39999C1.1501 4.39999 0.940099 3.91499 1.0201 3.57999L1.5251 1.89999H2.5101L2.2201 3.82999ZM4.5001 3.74499C4.5001 4.10499 4.2251 4.39999 3.8551 4.39999C3.4801 4.39999 3.2051 4.04999 3.2451 3.65999L3.5201 1.89999H4.5001V3.74499ZM8.3851 4.39999C8.0801 4.39999 7.8151 4.15499 7.7801 3.82999L7.4901 1.89999L8.4551 1.89499L8.9801 3.57999C9.0601 3.91499 8.8551 4.39999 8.3851 4.39999Z" fill="#34905F"/>
</svg>
