<svg width="9" height="11" viewBox="0 0 9 11" fill="none" xmlns="http://www.w3.org/2000/svg">
<path d="M0 1.34999C0 1.01847 0.143668 0.700528 0.3994 0.466107C0.655131 0.231687 1.00198 0.0999908 1.36364 0.0999908H7.63636C7.81544 0.0999908 7.99276 0.132323 8.15821 0.195141C8.32365 0.25796 8.47398 0.350034 8.6006 0.466107C8.72723 0.582181 8.82767 0.71998 8.8962 0.871637C8.96473 1.02329 9 1.18584 9 1.34999V8.47499C9 8.57445 8.9569 8.66983 8.88018 8.74016C8.80346 8.81048 8.69941 8.84999 8.59091 8.84999H0.818182C0.818182 8.9826 0.875649 9.10978 0.977942 9.20354C1.08023 9.29731 1.21897 9.34999 1.36364 9.34999H8.59091C8.69941 9.34999 8.80346 9.3895 8.88018 9.45983C8.9569 9.53015 9 9.62554 9 9.72499C9 9.82445 8.9569 9.91983 8.88018 9.99016C8.80346 10.0605 8.69941 10.1 8.59091 10.1H1.36364C1.00198 10.1 0.655131 9.9683 0.3994 9.73387C0.143668 9.49945 0 9.18151 0 8.84999V1.34999ZM3.38018 2.83199C3.06655 2.96949 2.72727 3.21999 2.72727 3.59999C2.72727 3.97999 3.06655 4.22999 3.38018 4.36799C3.71945 4.51649 4.164 4.59999 4.63636 4.59999C5.10873 4.59999 5.55327 4.51649 5.89255 4.36799C6.20618 4.23049 6.54545 3.97999 6.54545 3.59999C6.54545 3.21999 6.20673 2.96999 5.89255 2.83199C5.55273 2.68349 5.10873 2.59999 4.63636 2.59999C4.164 2.59999 3.71945 2.68349 3.38018 2.83199ZM6.54273 4.54499C6.09273 4.88349 5.40545 5.09999 4.63636 5.09999C3.86727 5.09999 3.18 4.88349 2.73 4.54499C2.72814 4.56327 2.72723 4.58163 2.72727 4.59999C2.72727 5.15249 3.582 5.59999 4.63636 5.59999C5.69073 5.59999 6.54545 5.15249 6.54545 4.59999C6.54536 4.58163 6.54445 4.56328 6.54273 4.54499ZM4.63636 6.09999C3.86727 6.09999 3.18 5.88349 2.73 5.54499C2.72815 5.56327 2.72724 5.58163 2.72727 5.59999C2.72727 6.15249 3.582 6.59999 4.63636 6.59999C5.69073 6.59999 6.54545 6.15249 6.54545 5.59999C6.5455 5.58163 6.54459 5.56327 6.54273 5.54499C6.09273 5.88349 5.40545 6.09999 4.63636 6.09999Z" fill="#34905F"/>
</svg>
