<svg width="206" height="38" viewBox="0 0 206 38" fill="none" xmlns="http://www.w3.org/2000/svg">
<path d="M8.6 29.44C6.81333 29.44 5.25333 29.12 3.92 28.48C2.61333 27.8133 1.49333 26.8933 0.56 25.72L4.76 21.68C5.24 22.3467 5.8 22.8533 6.44 23.2C7.10667 23.5467 7.85333 23.72 8.68 23.72C9.48 23.72 10.1733 23.56 10.76 23.24C11.3467 22.8933 11.8133 22.4133 12.16 21.8C12.5067 21.16 12.68 20.3733 12.68 19.44V0.759999H19V19.08C19 21.1867 18.5733 23.0133 17.72 24.56C16.8667 26.1067 15.6667 27.3067 14.12 28.16C12.5733 29.0133 10.7333 29.44 8.6 29.44ZM32.1691 29.4C30.4357 29.4 28.8624 28.96 27.4491 28.08C26.0624 27.2 24.9557 26.0133 24.1291 24.52C23.3291 23 22.9291 21.3067 22.9291 19.44C22.9291 17.5467 23.3291 15.8533 24.1291 14.36C24.9557 12.84 26.0624 11.64 27.4491 10.76C28.8624 9.85333 30.4357 9.4 32.1691 9.4C33.6357 9.4 34.9291 9.72 36.0491 10.36C37.1957 10.9733 38.1024 11.8267 38.7691 12.92C39.4357 14.0133 39.7691 15.2533 39.7691 16.64V22.16C39.7691 23.5467 39.4357 24.7867 38.7691 25.88C38.1291 26.9733 37.2357 27.84 36.0891 28.48C34.9424 29.0933 33.6357 29.4 32.1691 29.4ZM32.8891 25.24C34.5157 25.24 35.8224 24.6933 36.8091 23.6C37.8224 22.5067 38.3291 21.1067 38.3291 19.4C38.3291 18.2533 38.1024 17.24 37.6491 16.36C37.1957 15.48 36.5557 14.8 35.7291 14.32C34.9291 13.8133 33.9824 13.56 32.8891 13.56C31.8224 13.56 30.8757 13.8133 30.0491 14.32C29.2491 14.8 28.6091 15.48 28.1291 16.36C27.6757 17.24 27.4491 18.2533 27.4491 19.4C27.4491 20.5467 27.6757 21.56 28.1291 22.44C28.6091 23.32 29.2491 24.0133 30.0491 24.52C30.8757 25 31.8224 25.24 32.8891 25.24ZM38.0491 29V23.84L38.8091 19.16L38.0491 14.52V9.8H42.4491V29H38.0491ZM55.7322 37.4C53.7055 37.4 51.9322 37.0267 50.4122 36.28C48.8922 35.56 47.6655 34.5333 46.7322 33.2L49.6122 30.32C50.3855 31.28 51.2655 32 52.2522 32.48C53.2389 32.96 54.4255 33.2 55.8122 33.2C57.5455 33.2 58.9189 32.7467 59.9322 31.84C60.9455 30.96 61.4522 29.7467 61.4522 28.2V23.48L62.2122 19.24L61.4522 14.96V9.8H65.8522V28.2C65.8522 30.04 65.4255 31.64 64.5722 33C63.7189 34.3867 62.5322 35.4667 61.0122 36.24C59.4922 37.0133 57.7322 37.4 55.7322 37.4ZM55.5322 28.6C53.8255 28.6 52.2789 28.1867 50.8922 27.36C49.5322 26.5067 48.4522 25.3467 47.6522 23.88C46.8789 22.4133 46.4922 20.7733 46.4922 18.96C46.4922 17.1467 46.8789 15.52 47.6522 14.08C48.4522 12.64 49.5322 11.5067 50.8922 10.68C52.2789 9.82667 53.8255 9.4 55.5322 9.4C57.0522 9.4 58.3855 9.70667 59.5322 10.32C60.6789 10.9333 61.5722 11.7867 62.2122 12.88C62.8522 13.9467 63.1722 15.2 63.1722 16.64V21.36C63.1722 22.7733 62.8389 24.0267 62.1722 25.12C61.5322 26.2133 60.6389 27.0667 59.4922 27.68C58.3455 28.2933 57.0255 28.6 55.5322 28.6ZM56.4122 24.44C57.4789 24.44 58.4122 24.2133 59.2122 23.76C60.0122 23.3067 60.6255 22.68 61.0522 21.88C61.5055 21.0533 61.7322 20.0933 61.7322 19C61.7322 17.9067 61.5055 16.96 61.0522 16.16C60.6255 15.3333 60.0122 14.6933 59.2122 14.24C58.4122 13.7867 57.4789 13.56 56.4122 13.56C55.3455 13.56 54.3989 13.7867 53.5722 14.24C52.7722 14.6933 52.1455 15.3333 51.6922 16.16C51.2389 16.96 51.0122 17.9067 51.0122 19C51.0122 20.0667 51.2389 21.0133 51.6922 21.84C52.1455 22.6667 52.7722 23.3067 53.5722 23.76C54.3989 24.2133 55.3455 24.44 56.4122 24.44ZM79.18 29.4C77.4467 29.4 75.8733 28.96 74.46 28.08C73.0733 27.2 71.9667 26.0133 71.14 24.52C70.34 23 69.94 21.3067 69.94 19.44C69.94 17.5467 70.34 15.8533 71.14 14.36C71.9667 12.84 73.0733 11.64 74.46 10.76C75.8733 9.85333 77.4467 9.4 79.18 9.4C80.6467 9.4 81.94 9.72 83.06 10.36C84.2067 10.9733 85.1133 11.8267 85.78 12.92C86.4467 14.0133 86.78 15.2533 86.78 16.64V22.16C86.78 23.5467 86.4467 24.7867 85.78 25.88C85.14 26.9733 84.2467 27.84 83.1 28.48C81.9533 29.0933 80.6467 29.4 79.18 29.4ZM79.9 25.24C81.5267 25.24 82.8333 24.6933 83.82 23.6C84.8333 22.5067 85.34 21.1067 85.34 19.4C85.34 18.2533 85.1133 17.24 84.66 16.36C84.2067 15.48 83.5667 14.8 82.74 14.32C81.94 13.8133 80.9933 13.56 79.9 13.56C78.8333 13.56 77.8867 13.8133 77.06 14.32C76.26 14.8 75.62 15.48 75.14 16.36C74.6867 17.24 74.46 18.2533 74.46 19.4C74.46 20.5467 74.6867 21.56 75.14 22.44C75.62 23.32 76.26 24.0133 77.06 24.52C77.8867 25 78.8333 25.24 79.9 25.24ZM85.06 29V23.84L85.82 19.16L85.06 14.52V9.8H89.46V29H85.06ZM120.12 29L108.68 14.28L119.76 0.759999H127.52L115.04 15.44V12.88L127.92 29H120.12ZM103.04 29V0.759999H109.32V29H103.04ZM140.283 29.4C138.363 29.4 136.63 28.9733 135.083 28.12C133.563 27.24 132.35 26.04 131.443 24.52C130.563 23 130.123 21.2933 130.123 19.4C130.123 17.5067 130.563 15.8133 131.443 14.32C132.323 12.8 133.51 11.6 135.003 10.72C136.523 9.84 138.203 9.4 140.043 9.4C141.83 9.4 143.403 9.81333 144.763 10.64C146.15 11.4667 147.23 12.6 148.003 14.04C148.803 15.48 149.203 17.12 149.203 18.96C149.203 19.28 149.177 19.6133 149.123 19.96C149.097 20.28 149.043 20.64 148.963 21.04H133.203V17.44H146.683L145.043 18.88C144.99 17.7067 144.763 16.72 144.363 15.92C143.963 15.12 143.39 14.5067 142.643 14.08C141.923 13.6533 141.03 13.44 139.963 13.44C138.843 13.44 137.87 13.68 137.043 14.16C136.217 14.64 135.577 15.32 135.123 16.2C134.67 17.0533 134.443 18.08 134.443 19.28C134.443 20.48 134.683 21.5333 135.163 22.44C135.643 23.3467 136.323 24.0533 137.203 24.56C138.083 25.04 139.097 25.28 140.243 25.28C141.23 25.28 142.137 25.1067 142.963 24.76C143.817 24.4133 144.537 23.9067 145.123 23.24L147.923 26.08C146.99 27.1733 145.857 28 144.523 28.56C143.19 29.12 141.777 29.4 140.283 29.4ZM161.171 29.4C159.437 29.4 157.864 28.96 156.451 28.08C155.064 27.2 153.957 26.0133 153.131 24.52C152.331 23 151.931 21.3067 151.931 19.44C151.931 17.5467 152.331 15.8533 153.131 14.36C153.957 12.84 155.064 11.64 156.451 10.76C157.864 9.85333 159.437 9.4 161.171 9.4C162.637 9.4 163.931 9.72 165.051 10.36C166.197 10.9733 167.104 11.8267 167.771 12.92C168.437 14.0133 168.771 15.2533 168.771 16.64V22.16C168.771 23.5467 168.437 24.7867 167.771 25.88C167.131 26.9733 166.237 27.84 165.091 28.48C163.944 29.0933 162.637 29.4 161.171 29.4ZM161.891 25.24C162.984 25.24 163.931 25 164.731 24.52C165.557 24.0133 166.197 23.32 166.651 22.44C167.104 21.56 167.331 20.5467 167.331 19.4C167.331 18.2533 167.104 17.24 166.651 16.36C166.197 15.48 165.557 14.8 164.731 14.32C163.931 13.8133 162.984 13.56 161.891 13.56C160.824 13.56 159.877 13.8133 159.051 14.32C158.251 14.8 157.611 15.48 157.131 16.36C156.677 17.24 156.451 18.2533 156.451 19.4C156.451 20.5467 156.677 21.56 157.131 22.44C157.611 23.32 158.251 24.0133 159.051 24.52C159.877 25 160.824 25.24 161.891 25.24ZM171.451 29H167.051V23.84L167.811 19.16L167.051 14.52V0.199999H171.451V29ZM184.774 29.4C183.04 29.4 181.467 28.96 180.054 28.08C178.667 27.2 177.56 26.0133 176.734 24.52C175.934 23 175.534 21.3067 175.534 19.44C175.534 17.5467 175.934 15.8533 176.734 14.36C177.56 12.84 178.667 11.64 180.054 10.76C181.467 9.85333 183.04 9.4 184.774 9.4C186.24 9.4 187.534 9.72 188.654 10.36C189.8 10.9733 190.707 11.8267 191.374 12.92C192.04 14.0133 192.374 15.2533 192.374 16.64V22.16C192.374 23.5467 192.04 24.7867 191.374 25.88C190.734 26.9733 189.84 27.84 188.694 28.48C187.547 29.0933 186.24 29.4 184.774 29.4ZM185.494 25.24C187.12 25.24 188.427 24.6933 189.414 23.6C190.427 22.5067 190.934 21.1067 190.934 19.4C190.934 18.2533 190.707 17.24 190.254 16.36C189.8 15.48 189.16 14.8 188.334 14.32C187.534 13.8133 186.587 13.56 185.494 13.56C184.427 13.56 183.48 13.8133 182.654 14.32C181.854 14.8 181.214 15.48 180.734 16.36C180.28 17.24 180.054 18.2533 180.054 19.4C180.054 20.5467 180.28 21.56 180.734 22.44C181.214 23.32 181.854 24.0133 182.654 24.52C183.48 25 184.427 25.24 185.494 25.24ZM190.654 29V23.84L191.414 19.16L190.654 14.52V9.8H195.054V29H190.654ZM200.377 29V9.8H204.777V29H200.377ZM202.577 6.28C201.83 6.28 201.204 6.02667 200.697 5.52C200.217 5.01333 199.977 4.38667 199.977 3.64C199.977 2.89333 200.217 2.26666 200.697 1.76C201.204 1.25333 201.83 0.999998 202.577 0.999998C203.35 0.999998 203.977 1.25333 204.457 1.76C204.937 2.26666 205.177 2.89333 205.177 3.64C205.177 4.38667 204.937 5.01333 204.457 5.52C203.977 6.02667 203.35 6.28 202.577 6.28Z" fill="#f6fffa"/>
</svg>
